<svg id="Layer_1" data-name="Layer 1" xmlns="http://www.w3.org/2000/svg" xmlns:xlink="http://www.w3.org/1999/xlink" viewBox="0 0 30 30"><defs><style>.cls-1{fill:url(#linear-gradient);}</style><linearGradient id="linear-gradient" x1="3.14" y1="27.96" x2="29.06" y2="2.04" gradientUnits="userSpaceOnUse"><stop offset="0" stop-color="#0072f5"/><stop offset="1" stop-color="#5ea2ef"/></linearGradient></defs><path class="cls-1" d="M7.5,0A5.62,5.62,0,0,0,1.88,5.62V24.38A5.62,5.62,0,0,0,7.5,30H26.25a1.88,1.88,0,0,0,0-3.75V22.5a1.87,1.87,0,0,0,1.87-1.88V1.88A1.87,1.87,0,0,0,26.25,0H7.5Zm0,22.5h15v3.75H7.5a1.88,1.88,0,1,1,0-3.75ZM9.38,8.44a.94.94,0,0,1,.93-.94H21.56a.94.94,0,0,1,0,1.88H10.31A.94.94,0,0,1,9.38,8.44Zm.93,2.81H21.56a.94.94,0,1,1,0,1.87H10.31a.94.94,0,0,1,0-1.87Z"/></svg>