<svg id="Layer_1" data-name="Layer 1" xmlns="http://www.w3.org/2000/svg" xmlns:xlink="http://www.w3.org/1999/xlink" viewBox="0 0 30 30"><defs><style>.cls-1{fill:url(#linear-gradient);}</style><linearGradient id="linear-gradient" x1="0.36" y1="29.64" x2="27.85" y2="2.15" gradientUnits="userSpaceOnUse"><stop offset="0" stop-color="#ff705b"/><stop offset="1" stop-color="#ffb457"/></linearGradient></defs><path class="cls-1" d="M6.41,14.3,14.3,6.41,11.71,3.83,8.1,7.44a.45.45,0,0,1-.66,0h0l-.65-.65a.45.45,0,0,1,0-.66L10.4,2.52l-2-2A1.87,1.87,0,0,0,5.8.54L.54,5.8a1.87,1.87,0,0,0,0,2.63ZM29.18,7.46a2.83,2.83,0,0,0,0-4L26.52.82a2.81,2.81,0,0,0-4,0l-2.69,2.7,6.63,6.63ZM18.52,4.85,1.12,22.25,0,28.54A1.24,1.24,0,0,0,1.46,30l6.3-1.1,17.39-17.4ZM29.46,21.57l-2-2-3.61,3.61a.45.45,0,0,1-.66,0l-.65-.65a.47.47,0,0,1,0-.66l3.61-3.61L23.58,15.7,15.7,23.58l5.87,5.88a1.87,1.87,0,0,0,2.63,0l5.26-5.26A1.87,1.87,0,0,0,29.46,21.57Z"/></svg>